HIERARCHY
ROOT Hips
{
	OFFSET 0.00000 0.00000 0.00000
	CHANNELS 6 Xposition Yposition Zposition Zrotation Yrotation Xrotation 
	JOINT LHipJoint
	{
		OFFSET 0 0 0
		CHANNELS 3 Zrotation Yrotation Xrotation
		JOINT LeftHip
		{
			OFFSET 1.57338 -1.94743 0.52196
			CHANNELS 3 Zrotation Yrotation Xrotation
			JOINT LeftKnee
			{
				OFFSET 2.60333 -7.15259 0.00000
				CHANNELS 3 Zrotation Yrotation Xrotation
				JOINT LeftAnkle
				{
					OFFSET 2.77855 -7.63400 0.00000
					CHANNELS 3 Zrotation Yrotation Xrotation
					JOINT LeftToe
					{
						OFFSET 0.19847 -0.54529 2.28466
						CHANNELS 3 Zrotation Yrotation Xrotation
						End Site
						{
							OFFSET 0.00000 -0.00000 1.17993
						}
					}
				}
			}
		}
	}
	JOINT RHipJoint
	{
		OFFSET 0 0 0
		CHANNELS 3 Zrotation Yrotation Xrotation
		JOINT RightHip
		{
			OFFSET -1.61527 -1.94743 0.52196
			CHANNELS 3 Zrotation Yrotation Xrotation
			JOINT RightKnee
			{
				OFFSET -2.53829 -6.97390 0.00000
				CHANNELS 3 Zrotation Yrotation Xrotation
				JOINT RightAnkle
				{
					OFFSET -2.80762 -7.71387 0.00000
					CHANNELS 3 Zrotation Yrotation Xrotation
					JOINT RightToe
					{
						OFFSET -0.30536 -0.83898 2.28801
						CHANNELS 3 Zrotation Yrotation Xrotation
						End Site
						{
							OFFSET -0.00000 -0.00000 1.21323
						}
					}
				}
			}
		}
	}
	JOINT lowerback
	{
		OFFSET 0 0 0
		CHANNELS 3 Zrotation Yrotation Xrotation
		JOINT Chest
		{
			OFFSET -0.04381 1.99497 -0.19778
			CHANNELS 3 Zrotation Yrotation Xrotation
			JOINT Chest2
			{
				OFFSET -0.01959 2.01295 -0.04372
				CHANNELS 3 Zrotation Yrotation Xrotation
				JOINT lowerneck
				{
					OFFSET 0 0 0
					CHANNELS 3 Zrotation Yrotation Xrotation
					JOINT Neck
					{
						OFFSET -0.05459 1.76913 0.09708
						CHANNELS 3 Zrotation Yrotation Xrotation
						JOINT Head
						{
							OFFSET 0.09461 1.77368 -0.11172
							CHANNELS 3 Zrotation Yrotation Xrotation
							End Site
							{
								OFFSET 0.03812 1.78157 -0.04834
							}
						}
					}
				}
				JOINT LeftCollar
				{
					OFFSET 0 0 0
					CHANNELS 3 Zrotation Yrotation Xrotation
					JOINT LeftShoulder
					{
						OFFSET 3.50922 1.24034 -0.28866
CHANNELS 3 Zrotation Xrotation Yrotation
						JOINT LeftElbow
						{
OFFSET 0 -5.401880 0.000000
CHANNELS 3 Zrotation Xrotation Yrotation
							JOINT LeftWrist
							{
OFFSET 0 -3.685590 0.000000
CHANNELS 3 Zrotation Xrotation Yrotation
								JOINT lhand
								{
									OFFSET 0 0 0
CHANNELS 3 Zrotation Xrotation Yrotation
									JOINT LFingers
									{
OFFSET 0 -0.617530 0.000000
CHANNELS 3 Zrotation Xrotation Yrotation
										End Site
										{
OFFSET 0 -0.497870 0.000000
										}
									}
								}
								JOINT LThumb
								{
OFFSET 0 0.000000 0.000000
CHANNELS 3 Zrotation Xrotation Yrotation
									End Site
									{
OFFSET 0 -0.505470 0.505470
									}
								}
							}
						}
					}
				}
				JOINT RightCollar
				{
					OFFSET 0 0 0
					CHANNELS 3 Zrotation Yrotation Xrotation
					JOINT RightShoulder
					{
						OFFSET -2.95373 1.39649 -0.27346
CHANNELS 3 Zrotation Xrotation Yrotation
						JOINT RightElbow
						{
OFFSET 0 -6.106700 -0.000000
CHANNELS 3 Zrotation Xrotation Yrotation
							JOINT RightWrist
							{
OFFSET 0 -3.630520 0.000000
CHANNELS 3 Zrotation Xrotation Yrotation
								JOINT rhand
								{
									OFFSET 0 0 0
CHANNELS 3 Zrotation Xrotation Yrotation
									JOINT RFingers
									{
OFFSET 0 -0.583850 0.000000
CHANNELS 3 Zrotation Xrotation Yrotation
										End Site
										{
OFFSET 0 -0.470710 0.000000
										}
									}
								}
								JOINT RThumb
								{
OFFSET 0 0.000000 0.000000
CHANNELS 3 Zrotation Xrotation Yrotation
									End Site
									{
OFFSET 0 -0.477900 0.477900
									}
								}
							}
						}
					}
				}
			}
		}
	}
}
MOTION
Frames: 8
Frame Time: 0.008333333333333333
-7.475587 20.536885 3.952501 19.048012 -85.182273 -21.074413 0.000000 0.000000 0.000000 -21.899727 -9.916058 -4.279510 1.949217 8.759042 25.044690 -0.444904 20.818706 10.742021 0.739086 5.483147 15.294128 0.000000 0.000000 0.000000 20.774397 17.470434 3.874375 -2.217923 -9.305300 26.755575 1.956375 -25.200324 -0.750313 -0.511936 -4.502989 12.510053 -2.618754 1.511087 9.904891 -1.878677 1.451245 -4.094838 -0.804940 0.781683 -9.984130 -8.180754 -2.773805 -8.885609 7.389966 -3.322105 -22.104722 3.808934 -1.779700 -4.953794 0.000000 0.000000 0.000000 165.798921 -30.669197 80.877871 14.952459 -24.069307 3.212814 21.065086 12.515365 -20.192326 0.000000 0.000000 0.000000 -7.125000 0.000000 0.000000 -7.501684 51.335838 1.186874 0.000000 0.000000 0.000000 -143.091825 -16.812550 -57.046677 -19.710726 -30.290679 -5.385390 -26.129268 -12.491941 4.787168 0.000000 0.000000 0.000000 7.125000 0.000000 0.000000 0.446845 35.309957 0.109564
-7.276263 20.984725 3.907808 56.381693 -83.500641 -55.757245 0.000000 0.000000 0.000000 -24.985722 -11.867516 -5.545253 1.595417 7.966067 22.611519 0.458529 23.691241 19.743254 0.626168 5.061329 14.084092 0.000000 0.000000 0.000000 14.626061 18.987650 -1.714946 -2.738397 -10.258044 29.817519 1.965412 -27.582180 4.513938 -1.285450 -7.182928 20.259102 -7.286044 2.008032 9.896089 -2.965265 1.262577 -4.650423 0.649114 0.948680 -10.737125 -8.386842 -2.978676 -10.292669 8.256023 -3.444872 -22.709081 4.117821 -1.883867 -4.884955 0.000000 0.000000 0.000000 173.691314 -28.404913 96.905812 10.601012 -17.673028 1.653648 17.973965 20.614951 -26.936736 0.000000 0.000000 0.000000 -7.125000 0.000000 0.000000 -13.546217 57.574577 4.222589 0.000000 0.000000 0.000000 -145.339140 -15.603844 -59.166403 -18.407961 -28.676377 -4.743379 -25.325848 -13.630648 2.855868 0.000000 0.000000 0.000000 7.125000 0.000000 0.000000 1.038984 33.136975 0.301024
-7.160383 21.196846 3.799556 81.336883 -81.012542 -80.672903 0.000000 0.000000 0.000000 -28.712906 -11.788539 -3.603294 1.192392 6.927340 19.500866 1.633670 20.838152 25.422310 0.326065 3.641442 10.073084 0.000000 0.000000 0.000000 10.800612 21.423061 -3.575044 -3.322734 -11.199294 32.955736 1.866473 -27.419074 5.280136 -1.524101 -7.794936 22.093051 -12.002927 2.549869 10.043088 -3.761014 1.146971 -4.475479 2.406516 1.149491 -10.815976 -9.181652 -2.926128 -11.244165 9.021330 -3.139142 -21.376956 4.440848 -1.690426 -4.308677 0.000000 0.000000 0.000000 176.008230 -28.839311 100.066310 10.608676 -17.685418 1.655522 21.831446 19.487794 -23.953518 0.000000 0.000000 0.000000 -7.125000 0.000000 0.000000 -8.069671 55.370149 2.076706 0.000000 0.000000 0.000000 -146.700714 -16.482663 -57.906395 -19.041713 -29.470237 -5.051489 -26.224224 -17.364674 1.153053 0.000000 0.000000 0.000000 7.125000 0.000000 0.000000 0.277255 31.264645 0.092394
-7.093254 21.254752 3.769153 94.184272 -77.433992 -93.893966 0.000000 0.000000 0.000000 -32.724022 -8.964691 -1.722667 0.885158 5.997221 16.776312 1.067701 24.740586 23.922203 1.096032 6.645829 18.672887 0.000000 0.000000 0.000000 6.896110 23.309398 -4.319786 -3.687001 -11.731708 34.789583 1.860164 -27.004756 4.619964 -1.806398 -8.449673 24.088971 -15.385539 2.894358 9.334702 -4.893877 1.038396 -4.481502 3.041044 1.214874 -10.547183 -9.673002 -2.662610 -10.336762 9.606235 -2.699678 -20.570351 4.703366 -1.460402 -4.207633 0.000000 0.000000 0.000000 175.220035 -30.784481 91.592978 12.214989 -20.125846 2.176027 20.949255 15.261503 -22.915027 0.000000 0.000000 0.000000 -7.125000 0.000000 0.000000 -8.560090 54.130684 1.931464 0.000000 0.000000 0.000000 -147.497831 -18.072678 -52.050089 -20.225014 -30.912411 -5.646568 -25.231285 -20.221821 0.464824 0.000000 0.000000 0.000000 7.125000 0.000000 0.000000 1.057160 30.493644 0.376831
-7.001060 21.116437 3.735161 101.954354 -76.752142 -101.282987 0.000000 0.000000 0.000000 -33.355793 -7.666865 -1.722406 0.874366 5.961372 16.672446 1.782022 22.368626 26.786990 0.383034 3.973130 11.001292 0.000000 0.000000 0.000000 6.250383 23.346291 -5.963091 -3.879753 -11.998668 35.727231 1.838477 -27.577706 5.832674 -1.808317 -8.454703 24.103945 -15.759862 3.022971 7.764803 -5.249189 1.428193 -4.465983 2.841845 1.346617 -9.675947 -9.390174 -2.879342 -10.302626 10.343561 -2.916520 -20.021204 4.871026 -1.614412 -3.996296 0.000000 0.000000 0.000000 175.704282 -32.339953 87.632406 12.584444 -20.675309 2.304522 18.725774 14.959022 -22.414898 0.000000 0.000000 0.000000 -7.125000 0.000000 0.000000 -10.618544 53.203178 2.162054 0.000000 0.000000 0.000000 -148.498995 -20.254474 -51.175825 -19.781148 -30.377596 -5.420308 -24.641408 -19.943874 -1.604177 0.000000 0.000000 0.000000 7.125000 0.000000 0.000000 1.498642 28.214067 0.612676
-6.897509 20.808302 3.728778 109.825389 -77.440977 -109.847489 0.000000 0.000000 0.000000 -32.627200 -7.343727 -1.297555 1.041927 6.491376 18.217106 1.856050 20.185097 26.444777 0.231038 3.067365 8.468278 0.000000 0.000000 0.000000 8.166491 23.470648 -5.056596 -3.857134 -11.967829 35.618277 1.335824 -25.701187 7.956413 -1.442398 -7.576584 21.442983 -14.152723 3.304850 7.486369 -5.105805 2.129611 -4.199485 2.046163 1.573337 -9.218937 -9.507420 -3.118223 -10.043213 10.748904 -3.186155 -19.418958 5.000491 -1.747557 -3.806104 0.000000 0.000000 0.000000 176.398723 -34.132467 87.347393 12.155452 -20.037247 2.155311 17.169938 14.145361 -23.058083 0.000000 0.000000 0.000000 -7.125000 0.000000 0.000000 -12.447887 53.563982 2.653563 0.000000 0.000000 0.000000 -149.227247 -23.045378 -51.041074 -19.146608 -29.600263 -5.103094 -30.010879 -19.427693 1.496969 0.000000 0.000000 0.000000 7.125000 0.000000 0.000000 -2.759250 31.704437 -0.890562
-6.815870 20.322726 3.714162 113.033391 -77.476639 -113.693045 0.000000 0.000000 0.000000 -32.847607 -6.902153 -0.288516 1.143024 6.789110 19.092069 1.444504 17.080574 23.081749 0.059062 0.041024 0.112840 0.000000 0.000000 0.000000 9.318468 22.356403 -3.609623 -3.925525 -12.060616 35.946683 1.188128 -21.705124 3.443797 -0.139210 -2.158075 5.952354 -13.761420 3.283952 6.746607 -4.992639 2.367615 -3.735847 1.986366 1.617444 -8.272446 -9.070766 -2.884021 -9.457941 10.431370 -2.949040 -18.714037 4.813671 -1.637004 -3.720921 0.000000 0.000000 0.000000 175.965100 -35.480223 86.082023 12.114661 -19.976369 2.141333 18.780507 14.665136 -22.140913 0.000000 0.000000 0.000000 -7.125000 0.000000 0.000000 -10.455148 52.935592 2.059389 0.000000 0.000000 0.000000 -149.811067 -26.077818 -52.270170 -18.432386 -28.707188 -4.755142 -35.012363 -19.008222 -0.818763 0.000000 0.000000 0.000000 7.125000 0.000000 0.000000 -6.574292 28.947506 -2.594768
-6.748245 19.821995 3.711796 112.668728 -77.762453 -114.291896 0.000000 0.000000 0.000000 -33.170822 -5.485346 2.062335 1.145272 6.795473 19.110920 0.473903 12.531027 14.029338 0.703861 -5.359924 -14.938579 0.000000 0.000000 0.000000 10.731478 20.986816 -0.815215 -3.942038 -12.082931 36.025861 0.813504 -15.751381 -4.502994 -0.144367 2.447231 -6.743425 -13.404044 2.986533 6.576736 -4.780339 2.145268 -3.163931 2.096718 1.452324 -7.489364 -8.825158 -2.615867 -8.200190 10.141920 -2.681403 -18.407827 4.690550 -1.515344 -3.862028 0.000000 0.000000 0.000000 174.206031 -36.131818 82.549567 12.439789 -20.460781 2.253754 20.277458 15.162307 -21.426985 0.000000 0.000000 0.000000 -7.125000 0.000000 0.000000 -8.690293 52.476144 1.609540 0.000000 0.000000 0.000000 -150.209408 -29.494613 -55.258903 -17.954966 -28.099328 -4.528070 -33.848664 -13.770037 -2.375454 0.000000 0.000000 0.000000 7.125000 0.000000 0.000000 -5.549012 27.101202 -2.435252
